<?xml version="1.0" encoding="UTF-8" standalone="no"?>
<!DOCTYPE svg PUBLIC "-//W3C//DTD SVG 1.1//EN" "http://www.w3.org/Graphics/SVG/1.1/DTD/svg11.dtd">
<svg xmlns="http://www.w3.org/2000/svg" version="1.1" viewBox="0.00 0.00 180.00 180.00">
<path stroke="#6f737a" stroke-width="2.00" fill="none" stroke-linecap="butt" vector-effect="non-scaling-stroke" d="
  M 142.94 83.44
  Q 142.97 83.46 143.02 83.48
  Q 143.20 83.53 143.29 83.26
  Q 145.07 77.75 145.40 71.97
  A 0.35 0.35 0.0 0 0 144.86 71.66
  Q 135.22 78.17 123.72 81.00
  Q 123.23 81.11 122.73 81.13
  Q 122.65 81.13 122.71 81.20
  Q 122.80 81.31 122.74 81.50
  Q 122.68 81.75 122.42 81.77
  L 111.04 82.85
  A 0.37 0.37 0.0 0 1 110.86 82.15
  Q 121.99 77.17 132.08 70.03
  C 134.70 68.18 137.16 65.85 139.74 63.71
  Q 146.44 58.13 151.71 51.20
  C 158.11 42.77 163.38 31.50 160.38 20.35
  A 0.43 0.43 0.0 0 0 159.69 20.13
  C 142.87 33.80 125.28 46.53 104.61 53.81
  C 75.87 63.92 37.90 73.41 23.65 104.09
  Q 16.00 120.54 21.06 139.02
  C 22.36 143.75 24.69 147.64 27.19 152.20
  Q 27.41 152.61 27.67 152.78
  A 0.77 0.73 8.4 0 1 27.93 153.11
  Q 28.37 154.29 29.15 155.21
  C 30.50 156.83 31.54 158.38 32.87 159.83
  Q 33.26 160.25 33.65 159.83
  C 35.41 157.97 36.57 155.91 38.72 153.57
  C 45.28 146.47 56.54 142.15 65.99 140.98
  Q 77.15 139.60 88.24 137.90
  C 102.07 135.78 113.71 128.03 117.15 114.52
  Q 117.42 113.46 116.37 113.78
  Q 102.72 117.98 88.70 115.09
  Q 84.44 114.21 88.76 113.69
  C 105.14 111.70 123.89 106.71 136.20 94.40
  C 138.81 91.78 140.75 88.50 142.45 85.23
  Q 142.88 84.38 142.88 83.46
  Q 142.88 83.39 142.94 83.44"
/>
<path fill="#dde6f3" d="
  M 22.88 0.00
  L 157.23 0.00
  Q 176.88 3.24 180.00 22.88
  L 180.00 157.24
  Q 176.77 176.88 157.12 180.00
  L 22.76 180.00
  Q 3.12 176.77 0.00 157.12
  L 0.00 22.76
  Q 3.23 3.12 22.88 0.00
  Z
  M 142.94 83.44
  Q 142.97 83.46 143.02 83.48
  Q 143.20 83.53 143.29 83.26
  Q 145.07 77.75 145.40 71.97
  A 0.35 0.35 0.0 0 0 144.86 71.66
  Q 135.22 78.17 123.72 81.00
  Q 123.23 81.11 122.73 81.13
  Q 122.65 81.13 122.71 81.20
  Q 122.80 81.31 122.74 81.50
  Q 122.68 81.75 122.42 81.77
  L 111.04 82.85
  A 0.37 0.37 0.0 0 1 110.86 82.15
  Q 121.99 77.17 132.08 70.03
  C 134.70 68.18 137.16 65.85 139.74 63.71
  Q 146.44 58.13 151.71 51.20
  C 158.11 42.77 163.38 31.50 160.38 20.35
  A 0.43 0.43 0.0 0 0 159.69 20.13
  C 142.87 33.80 125.28 46.53 104.61 53.81
  C 75.87 63.92 37.90 73.41 23.65 104.09
  Q 16.00 120.54 21.06 139.02
  C 22.36 143.75 24.69 147.64 27.19 152.20
  Q 27.41 152.61 27.67 152.78
  A 0.77 0.73 8.4 0 1 27.93 153.11
  Q 28.37 154.29 29.15 155.21
  C 30.50 156.83 31.54 158.38 32.87 159.83
  Q 33.26 160.25 33.65 159.83
  C 35.41 157.97 36.57 155.91 38.72 153.57
  C 45.28 146.47 56.54 142.15 65.99 140.98
  Q 77.15 139.60 88.24 137.90
  C 102.07 135.78 113.71 128.03 117.15 114.52
  Q 117.42 113.46 116.37 113.78
  Q 102.72 117.98 88.70 115.09
  Q 84.44 114.21 88.76 113.69
  C 105.14 111.70 123.89 106.71 136.20 94.40
  C 138.81 91.78 140.75 88.50 142.45 85.23
  Q 142.88 84.38 142.88 83.46
  Q 142.88 83.39 142.94 83.44
  Z"
/>
<path fill="#000000" d="
  M 142.88 83.46
  Q 142.88 84.38 142.45 85.23
  C 140.75 88.50 138.81 91.78 136.20 94.40
  C 123.89 106.71 105.14 111.70 88.76 113.69
  Q 84.44 114.21 88.70 115.09
  Q 102.72 117.98 116.37 113.78
  Q 117.42 113.46 117.15 114.52
  C 113.71 128.03 102.07 135.78 88.24 137.90
  Q 77.15 139.60 65.99 140.98
  C 56.54 142.15 45.28 146.47 38.72 153.57
  C 36.57 155.91 35.41 157.97 33.65 159.83
  Q 33.26 160.25 32.87 159.83
  C 31.54 158.38 30.50 156.83 29.15 155.21
  Q 28.37 154.29 27.93 153.11
  A 0.77 0.73 8.4 0 0 27.67 152.78
  Q 27.41 152.61 27.19 152.20
  C 24.69 147.64 22.36 143.75 21.06 139.02
  Q 16.00 120.54 23.65 104.09
  C 37.90 73.41 75.87 63.92 104.61 53.81
  C 125.28 46.53 142.87 33.80 159.69 20.13
  A 0.43 0.43 0.0 0 1 160.38 20.35
  C 163.38 31.50 158.11 42.77 151.71 51.20
  Q 146.44 58.13 139.74 63.71
  C 137.16 65.85 134.70 68.18 132.08 70.03
  Q 121.99 77.17 110.86 82.15
  A 0.37 0.37 0.0 0 0 111.04 82.85
  L 122.42 81.77
  Q 122.68 81.75 122.74 81.50
  Q 122.80 81.31 122.71 81.20
  Q 122.65 81.13 122.73 81.13
  Q 123.23 81.11 123.72 81.00
  Q 135.22 78.17 144.86 71.66
  A 0.35 0.35 0.0 0 1 145.40 71.97
  Q 145.07 77.75 143.29 83.26
  Q 143.20 83.53 143.02 83.48
  Q 142.97 83.46 142.94 83.44
  Q 142.88 83.39 142.88 83.46
  Z"
/>
</svg>
